<svg xmlns="http://www.w3.org/2000/svg" xmlns:xlink="http://www.w3.org/1999/xlink" width="36" zoomAndPan="magnify" viewBox="0 0 26.88 26.999998" height="36" preserveAspectRatio="xMidYMid meet" version="1.0"><defs><clipPath id="6a894307f1"><path d="M 0 0.0585938 L 26.761719 0.0585938 L 26.761719 26.9375 L 0 26.9375 Z M 0 0.0585938 " clip-rule="nonzero"/></clipPath><clipPath id="b05b5eb178"><path d="M 0 0.0585938 L 26.40625 0.0585938 L 26.40625 26.46875 L 0 26.46875 Z M 0 0.0585938 " clip-rule="nonzero"/></clipPath><clipPath id="ed8e8c7c04"><path d="M 13.203125 0.0585938 L 26.40625 13.261719 L 13.203125 26.46875 L 0 13.261719 Z M 13.203125 0.0585938 " clip-rule="nonzero"/></clipPath><clipPath id="9e71d64cb0"><path d="M 0 0.0585938 L 26.40625 0.0585938 L 26.40625 26.46875 L 0 26.46875 Z M 0 0.0585938 " clip-rule="nonzero"/></clipPath><clipPath id="22400be332"><path d="M 13.203125 0.0585938 L 26.40625 13.261719 L 13.203125 26.46875 L 0 13.261719 Z M 13.203125 0.0585938 " clip-rule="nonzero"/></clipPath><clipPath id="138bfaa8f9"><rect x="0" width="27" y="0" height="27"/></clipPath><clipPath id="2000a8015d"><path d="M 6 13 L 21 13 L 21 21 L 6 21 Z M 6 13 " clip-rule="nonzero"/></clipPath><clipPath id="92c16a1fcb"><path d="M 6.097656 13.246094 L 13.191406 6.152344 L 20.34375 13.304688 L 13.246094 20.398438 Z M 6.097656 13.246094 " clip-rule="nonzero"/></clipPath><clipPath id="333a536405"><path d="M 20.316406 13.277344 L 13.222656 20.371094 L 6.097656 13.246094 Z M 20.316406 13.277344 " clip-rule="nonzero"/></clipPath><clipPath id="e24822a181"><path d="M 0 0.203125 L 14.546875 0.203125 L 14.546875 7.609375 L 0 7.609375 Z M 0 0.203125 " clip-rule="nonzero"/></clipPath><clipPath id="5892954295"><path d="M 0.0976562 0.246094 L 7.191406 -6.847656 L 14.34375 0.304688 L 7.246094 7.398438 Z M 0.0976562 0.246094 " clip-rule="nonzero"/></clipPath><clipPath id="0903aec38c"><path d="M 14.316406 0.277344 L 7.222656 7.371094 L 0.0976562 0.246094 Z M 14.316406 0.277344 " clip-rule="nonzero"/></clipPath><clipPath id="44d51cb042"><rect x="0" width="15" y="0" height="8"/></clipPath></defs><g clip-path="url(#6a894307f1)"><path fill="#ffffff" d="M 0 0.0585938 L 26.878906 0.0585938 L 26.878906 26.941406 L 0 26.941406 Z M 0 0.0585938 " fill-opacity="1" fill-rule="nonzero"/></g><g clip-path="url(#b05b5eb178)"><g clip-path="url(#ed8e8c7c04)"><g transform="matrix(1, 0, 0, 1, 0, 0.000000000000003164)"><g clip-path="url(#138bfaa8f9)"><g clip-path="url(#9e71d64cb0)"><g clip-path="url(#22400be332)"><path fill="#1800ad" d="M 0 0.0585938 L 26.40625 0.0585938 L 26.40625 26.46875 L 0 26.46875 Z M 0 0.0585938 " fill-opacity="1" fill-rule="nonzero"/></g></g></g></g></g></g><g clip-path="url(#2000a8015d)"><g clip-path="url(#92c16a1fcb)"><g clip-path="url(#333a536405)"><g transform="matrix(1, 0, 0, 1, 6, 13)"><g clip-path="url(#44d51cb042)"><g clip-path="url(#e24822a181)"><g clip-path="url(#5892954295)"><g clip-path="url(#0903aec38c)"><path fill="#ffffff" d="M 0.0976562 0.246094 L 7.191406 -6.847656 L 14.316406 0.277344 L 7.21875 7.371094 Z M 0.0976562 0.246094 " fill-opacity="1" fill-rule="nonzero"/></g></g></g></g></g></g></g></g></svg>