<svg xmlns="http://www.w3.org/2000/svg" xmlns:xlink="http://www.w3.org/1999/xlink" width="142" zoomAndPan="magnify" viewBox="0 0 106.5 20.25" height="27" preserveAspectRatio="xMidYMid meet" version="1.0"><defs><clipPath id="4c3dfb8568"><path d="M 72 0 L 89 0 L 89 19.527344 L 72 19.527344 Z M 72 0 " clip-rule="nonzero"/></clipPath></defs><path fill="#1800ad" d="M 2.160156 0.527344 L 2.160156 18.730469 L 20.367188 18.730469 L 20.367188 0.527344 Z M 14.777344 13.140625 L 7.753906 13.140625 L 7.753906 6.164062 L 14.726562 6.164062 L 14.726562 13.140625 Z M 14.777344 13.140625 " fill-opacity="1" fill-rule="nonzero"/><path fill="#1800ad" d="M 25.957031 6.164062 L 32.933594 6.164062 L 32.933594 13.140625 L 25.957031 13.140625 Z M 25.957031 6.164062 " fill-opacity="1" fill-rule="nonzero"/><path fill="#1800ad" d="M 38.570312 0.527344 L 48.699219 0.527344 C 52.425781 0.527344 54.097656 3.011719 54.097656 5.257812 C 54.097656 6.878906 53.476562 7.929688 51.804688 8.933594 C 53.90625 9.699219 55.101562 11.132812 55.101562 13.332031 C 55.101562 15.957031 53.191406 18.730469 48.746094 18.730469 L 38.570312 18.730469 Z M 44.113281 14.621094 L 47.792969 14.621094 C 48.746094 14.714844 49.609375 14 49.703125 13.042969 C 49.703125 12.996094 49.703125 12.949219 49.703125 12.902344 C 49.65625 12.039062 48.9375 11.324219 48.078125 11.371094 C 48.03125 11.371094 48.03125 11.371094 47.984375 11.371094 L 44.113281 11.371094 Z M 44.113281 7.691406 L 47.074219 7.691406 C 48.414062 7.691406 48.9375 7.070312 48.9375 6.164062 C 48.988281 5.398438 48.367188 4.777344 47.648438 4.777344 C 47.601562 4.777344 47.503906 4.777344 47.457031 4.777344 L 44.160156 4.777344 Z M 44.113281 7.691406 " fill-opacity="1" fill-rule="nonzero"/><path fill="#1800ad" d="M 60.835938 0.527344 L 66.714844 0.527344 L 73.402344 18.683594 L 67.382812 18.683594 L 66.472656 15.957031 L 60.835938 15.957031 L 60.070312 18.683594 L 54.148438 18.683594 Z M 63.558594 5.925781 L 62.03125 11.992188 L 65.328125 11.992188 Z M 63.558594 5.925781 " fill-opacity="1" fill-rule="nonzero"/><g clip-path="url(#4c3dfb8568)"><path fill="#1800ad" d="M 82.71875 5.925781 L 88.308594 5.925781 C 88.308594 2.867188 86.015625 0 80.472656 0 C 74.453125 0 72.542969 3.34375 72.542969 5.78125 C 72.542969 9.699219 77.367188 10.75 77.511719 10.796875 C 78.226562 11.039062 81.238281 11.800781 81.957031 12.089844 C 82.625 12.328125 83.199219 12.851562 83.199219 13.523438 C 83.199219 14.574219 81.957031 15.097656 80.855469 15.097656 C 80.1875 15.097656 77.894531 14.859375 77.894531 12.472656 L 72.113281 12.472656 C 72.113281 15.671875 74.308594 19.253906 80.472656 19.253906 C 87.308594 19.253906 88.691406 15.195312 88.691406 13.042969 C 88.644531 10.941406 87.355469 9.078125 85.394531 8.410156 C 84.011719 7.835938 81.714844 7.359375 80.570312 7.023438 C 79.996094 6.832031 78.039062 6.449219 78.039062 5.257812 C 78.039062 3.726562 80.523438 3.917969 80.1875 3.917969 C 81.429688 3.917969 82.71875 4.539062 82.71875 5.925781 Z M 82.71875 5.925781 " fill-opacity="1" fill-rule="nonzero"/></g><path fill="#1800ad" d="M 89.792969 0.527344 L 103.742188 0.527344 L 103.742188 5.351562 L 95.382812 5.351562 L 95.382812 8.550781 L 102.835938 8.550781 L 102.835938 13.140625 L 95.332031 13.140625 L 95.332031 18.730469 L 89.742188 18.730469 Z M 89.792969 0.527344 " fill-opacity="1" fill-rule="nonzero"/></svg>