<svg xmlns="http://www.w3.org/2000/svg" xmlns:xlink="http://www.w3.org/1999/xlink" width="139" zoomAndPan="magnify" viewBox="0 0 104.25 63.749998" height="85" preserveAspectRatio="xMidYMid meet" version="1.0"><defs><clipPath id="4712d97182"><path d="M 0 0.105469 L 102.761719 0.105469 L 102.761719 63.398438 L 0 63.398438 Z M 0 0.105469 " clip-rule="nonzero"/></clipPath></defs><g clip-path="url(#4712d97182)"><path fill="#1800ad" d="M 50.367188 63.328125 C 43.078125 63.328125 34.9375 62.148438 27.007812 59.46875 C 21.648438 57.648438 16.609375 55.292969 12.003906 51.863281 C 8.46875 49.183594 5.359375 46.183594 3.109375 42.21875 C 1.179688 39.003906 0.109375 35.464844 0.109375 31.609375 C 0.214844 27.109375 1.609375 23.144531 4.179688 19.390625 C 6.753906 15.75 9.96875 12.855469 13.609375 10.390625 C 18.96875 6.855469 24.753906 4.390625 30.972656 2.78125 C 35.363281 1.605469 39.863281 0.855469 44.472656 0.425781 C 48.652344 0.105469 52.722656 -0.00390625 56.902344 0.316406 C 64.40625 0.746094 71.90625 2.246094 79.085938 5.03125 C 84.230469 7.070312 89.050781 9.746094 93.339844 13.390625 C 96.660156 16.285156 99.339844 19.5 101.054688 23.570312 C 103.949219 30.539062 103.195312 37.179688 99.230469 43.398438 C 96.875 47.148438 93.660156 50.039062 90.125 52.613281 C 85.195312 56.042969 79.835938 58.398438 74.050781 60.222656 C 70.191406 61.398438 66.332031 62.148438 62.367188 62.683594 C 58.726562 63.113281 55.082031 63.328125 50.367188 63.328125 M 51.4375 57.328125 C 54.867188 57.328125 58.191406 57.113281 61.617188 56.792969 C 66.121094 56.253906 70.511719 55.398438 74.90625 54.113281 C 79.941406 52.613281 84.765625 50.578125 89.160156 47.683594 C 91.945312 45.753906 94.515625 43.503906 96.554688 40.71875 C 100.410156 35.144531 100.519531 28.824219 96.765625 23.25 C 95.265625 21 93.339844 19.070312 91.195312 17.355469 C 87.660156 14.570312 83.695312 12.535156 79.515625 10.925781 C 71.261719 7.820312 62.691406 6.425781 53.796875 6.105469 C 48.117188 5.996094 42.4375 6.320312 36.863281 7.285156 C 32.042969 8.140625 27.21875 9.425781 22.71875 11.25 C 18.753906 12.855469 15.003906 14.890625 11.574219 17.570312 C 9.109375 19.5 7.074219 21.75 5.574219 24.535156 C 4.074219 27.429688 3.429688 30.429688 3.859375 33.644531 C 4.289062 36.324219 5.359375 38.679688 6.859375 40.824219 C 8.894531 43.71875 11.574219 45.859375 14.46875 47.789062 C 18.863281 50.683594 23.578125 52.613281 28.613281 54.113281 C 36.007812 56.363281 43.617188 57.328125 51.4375 57.328125 " fill-opacity="1" fill-rule="nonzero"/></g><path fill="#1800ad" d="M 35.472656 31.714844 C 36.007812 32.144531 36.4375 32.574219 36.863281 33 C 36.972656 33.109375 37.078125 33.324219 37.078125 33.539062 C 37.078125 36.003906 37.078125 38.359375 37.078125 40.824219 C 37.078125 41.039062 36.972656 41.253906 36.863281 41.253906 C 35.898438 41.894531 34.9375 42.644531 33.863281 43.289062 C 33.757812 43.398438 33.542969 43.398438 33.433594 43.398438 C 29.792969 43.398438 26.148438 43.398438 22.503906 43.398438 C 22.398438 43.398438 22.398438 43.398438 22.289062 43.398438 L 22.289062 37.71875 L 31.183594 37.71875 C 31.183594 37.503906 31.183594 37.289062 31.183594 37.074219 C 31.183594 36.003906 31.183594 34.929688 31.183594 33.964844 C 31.183594 33.753906 31.183594 33.644531 30.863281 33.644531 C 27.648438 33.644531 24.328125 33.644531 21.113281 33.644531 C 21.113281 33.644531 21.003906 33.644531 20.898438 33.644531 L 20.898438 43.503906 L 14.898438 43.503906 L 14.898438 20.035156 L 15.324219 20.035156 C 21.433594 20.035156 27.542969 20.035156 33.648438 20.035156 C 33.972656 20.035156 34.078125 20.144531 34.292969 20.355469 C 35.148438 21.429688 36.113281 22.394531 36.972656 23.464844 C 37.078125 23.570312 37.1875 23.785156 37.1875 24 C 37.1875 26.035156 37.1875 28.074219 37.1875 30.109375 C 37.1875 30.324219 37.078125 30.539062 36.972656 30.644531 C 36.4375 30.964844 36.007812 31.289062 35.472656 31.714844 M 30.972656 25.714844 L 20.789062 25.714844 L 20.789062 29.894531 L 30.972656 29.894531 Z M 30.972656 25.714844 " fill-opacity="1" fill-rule="nonzero"/><path fill="#1800ad" d="M 72.871094 25.820312 L 72.871094 43.398438 L 66.546875 43.398438 L 66.546875 20.035156 L 66.976562 20.035156 C 72.761719 20.035156 78.441406 20.035156 84.230469 20.035156 C 84.550781 20.035156 84.660156 20.144531 84.871094 20.355469 C 85.945312 21.535156 86.910156 22.820312 87.980469 24 C 88.085938 24.109375 88.195312 24.320312 88.195312 24.535156 C 88.195312 30.75 88.195312 36.96875 88.195312 43.183594 C 88.195312 43.289062 88.195312 43.398438 88.195312 43.503906 L 74.265625 43.503906 L 74.265625 37.71875 L 81.765625 37.71875 C 81.765625 37.503906 81.765625 37.394531 81.765625 37.289062 C 81.765625 34.289062 81.765625 31.289062 81.765625 28.394531 C 81.765625 28.179688 81.65625 27.964844 81.550781 27.75 C 81.121094 27.214844 80.585938 26.679688 80.15625 26.144531 C 80.050781 26.035156 79.835938 25.929688 79.730469 25.929688 C 77.585938 25.929688 75.335938 25.929688 73.191406 25.929688 C 73.085938 25.820312 72.976562 25.820312 72.871094 25.820312 " fill-opacity="1" fill-rule="nonzero"/><path fill="#1800ad" d="M 57.011719 20.035156 L 64.082031 20.035156 L 64.082031 20.464844 C 64.082031 24 64.082031 27.644531 64.082031 31.179688 C 64.082031 31.5 63.976562 31.609375 63.761719 31.824219 C 63.117188 32.464844 62.476562 33.109375 61.726562 33.644531 C 61.617188 33.753906 61.296875 33.859375 61.191406 33.859375 C 59.691406 33.859375 58.191406 33.859375 56.6875 33.859375 C 56.261719 33.859375 56.152344 33.964844 56.152344 34.394531 C 56.152344 37.179688 56.152344 40.074219 56.152344 42.859375 L 56.152344 43.398438 L 49.1875 43.398438 L 49.1875 28.285156 L 49.617188 28.285156 C 51.546875 28.285156 53.472656 28.285156 55.511719 28.285156 C 55.832031 28.285156 56.046875 28.179688 56.367188 27.964844 C 56.902344 27.535156 57.117188 27.109375 57.117188 26.359375 C 57.117188 24.429688 57.117188 22.394531 57.117188 20.464844 L 57.117188 20.035156 Z M 57.011719 20.035156 " fill-opacity="1" fill-rule="nonzero"/><path fill="#1800ad" d="M 47.6875 33.964844 C 47.152344 33.964844 46.617188 33.964844 46.1875 33.964844 C 44.902344 33.964844 43.617188 33.964844 42.4375 33.964844 C 42.222656 33.964844 42.117188 33.859375 41.902344 33.753906 C 41.152344 33.109375 40.507812 32.464844 39.757812 31.824219 C 39.652344 31.714844 39.542969 31.5 39.542969 31.394531 C 39.542969 27.644531 39.542969 24 39.542969 20.25 C 39.542969 20.25 39.542969 20.144531 39.542969 20.144531 L 46.617188 20.144531 L 46.617188 20.464844 C 46.617188 22.605469 46.617188 24.75 46.617188 26.894531 C 46.617188 27.214844 46.722656 27.429688 46.9375 27.644531 C 47.472656 28.074219 47.6875 28.609375 47.6875 29.25 C 47.582031 30.644531 47.6875 32.039062 47.6875 33.429688 Z M 47.6875 33.964844 " fill-opacity="1" fill-rule="nonzero"/></svg>