<?xml version="1.0" encoding="iso-8859-1"?>
<!-- Uploaded to: SVG Repo, www.svgrepo.com, Generator: SVG Repo Mixer Tools -->
<svg fill="#000000" height="800px" width="800px" version="1.1" id="Capa_1" xmlns="http://www.w3.org/2000/svg" xmlns:xlink="http://www.w3.org/1999/xlink" 
	 viewBox="0 0 525.574 525.574" xml:space="preserve">
<path d="M398.282,119.068c0-48.488-26.18-93.583-68.323-117.688c-1.39-0.794-3.087-1.232-4.78-1.232
	c-4.668,0-9.393,3.409-9.393,9.925v107.84l-0.008,0.178c0,0,0.775,5.983-6.063,5.983h-94.772c-3.38,0-5.114-1.506-5.156-4.495
	V12.324C209.786,0.889,202.853,0,200.728,0c-2.237,0-4.131,0.817-5.326,1.503c-42.012,24.129-68.11,69.178-68.11,117.565
	c0,53.961,31.71,100.652,77.472,122.428c2.851,1.356,8.709,3.911,8.709,12.244v222.518c0,27.192,22.123,49.315,49.316,49.315
	c27.192,0,49.314-22.123,49.314-49.315V252.741c0-6.833,6.204-10.037,9.216-11.486C366.808,219.376,398.282,172.83,398.282,119.068z
	"/>
</svg>