<svg xmlns="http://www.w3.org/2000/svg" xmlns:xlink="http://www.w3.org/1999/xlink" width="129" zoomAndPan="magnify" viewBox="0 0 96.75 45.749998" height="61" preserveAspectRatio="xMidYMid meet" version="1.0"><defs><clipPath id="e388840a20"><path d="M 0.136719 0 L 69 0 L 69 45.5 L 0.136719 45.5 Z M 0.136719 0 " clip-rule="nonzero"/></clipPath><clipPath id="652e8db271"><path d="M 0.136719 25 L 21 25 L 21 45.5 L 0.136719 45.5 Z M 0.136719 25 " clip-rule="nonzero"/></clipPath><clipPath id="cf24288dd3"><path d="M 27 0 L 96 0 L 96 45.5 L 27 45.5 Z M 27 0 " clip-rule="nonzero"/></clipPath></defs><g clip-path="url(#e388840a20)"><path fill="#ffffff" d="M 45.601562 0.109375 L 0.257812 45.402344 L 50.621094 45.402344 L 68.257812 27.777344 L 68.257812 0.117188 L 56.277344 0.117188 " fill-opacity="1" fill-rule="nonzero"/></g><g clip-path="url(#652e8db271)"><path fill="#1800ad" d="M 20.40625 25.289062 L 0.273438 45.414062 L 20.40625 45.414062 L 20.40625 25.289062 " fill-opacity="1" fill-rule="nonzero"/></g><g clip-path="url(#cf24288dd3)"><path fill="#1800ad" d="M 39.300781 34.078125 L 50.625 45.398438 L 95.96875 0.101562 L 45.601562 0.101562 L 27.960938 17.730469 L 27.960938 45.390625 L 39.941406 45.390625 L 28.636719 34.089844 L 39.941406 22.773438 L 50.628906 22.773438 L 39.28125 34.125 L 39.300781 34.078125 " fill-opacity="1" fill-rule="nonzero"/></g></svg>