<svg xmlns="http://www.w3.org/2000/svg" xmlns:xlink="http://www.w3.org/1999/xlink" width="139" zoomAndPan="magnify" viewBox="0 0 104.25 62.999997" height="84" preserveAspectRatio="xMidYMid meet" version="1.0"><defs><clipPath id="05aa416882"><path d="M 84 42 L 102.761719 42 L 102.761719 61 L 84 61 Z M 84 42 " clip-rule="nonzero"/></clipPath><clipPath id="af5890afcc"><path d="M 42 0.226562 L 61 0.226562 L 61 19 L 42 19 Z M 42 0.226562 " clip-rule="nonzero"/></clipPath><clipPath id="7a0563dd45"><path d="M 11 22 L 92 22 L 92 62.03125 L 11 62.03125 Z M 11 22 " clip-rule="nonzero"/></clipPath></defs><path fill="#1800ad" d="M 40.351562 18.230469 L 38.648438 13.0625 L 41.355469 10.347656 L 43.621094 19.214844 L 47.191406 22.796875 L 44.875 25.125 L 41.324219 21.554688 L 32.863281 18.878906 L 35.410156 16.320312 L 40.300781 18.222656 L 40.351562 18.230469 " fill-opacity="1" fill-rule="nonzero"/><path fill="#1800ad" d="M 30.125 24.855469 C 28.675781 26.304688 29.15625 28.070312 30.917969 29.847656 C 32.683594 31.621094 34.441406 32.101562 35.890625 30.652344 C 37.34375 29.199219 36.851562 27.421875 35.085938 25.660156 C 33.320312 23.894531 31.566406 23.402344 30.125 24.855469 M 28.308594 23.035156 C 31.160156 20.175781 34.929688 20.445312 37.605469 23.140625 C 37.933594 23.429688 38.230469 23.753906 38.492188 24.105469 C 38.757812 24.460938 38.980469 24.835938 39.164062 25.234375 C 39.347656 25.636719 39.484375 26.050781 39.582031 26.480469 C 39.675781 26.910156 39.726562 27.34375 39.730469 27.785156 C 39.738281 28.222656 39.695312 28.660156 39.609375 29.089844 C 39.519531 29.523438 39.390625 29.9375 39.214844 30.34375 C 39.039062 30.746094 38.824219 31.128906 38.566406 31.484375 C 38.3125 31.84375 38.023438 32.171875 37.699219 32.46875 C 34.847656 35.332031 31.078125 35.046875 28.402344 32.363281 C 28.070312 32.074219 27.777344 31.75 27.511719 31.398438 C 27.25 31.046875 27.027344 30.667969 26.84375 30.269531 C 26.660156 29.871094 26.519531 29.453125 26.425781 29.023438 C 26.328125 28.597656 26.277344 28.160156 26.273438 27.722656 C 26.269531 27.28125 26.3125 26.847656 26.398438 26.414062 C 26.484375 25.984375 26.617188 25.566406 26.792969 25.164062 C 26.96875 24.757812 27.183594 24.378906 27.4375 24.019531 C 27.695312 23.660156 27.984375 23.332031 28.308594 23.035156 " fill-opacity="1" fill-rule="nonzero"/><path fill="#1800ad" d="M 32.484375 37.566406 L 26.28125 35.789062 C 26.453125 35.417969 26.566406 35.03125 26.617188 34.625 C 26.667969 34.222656 26.652344 33.816406 26.578125 33.417969 C 26.5 33.015625 26.363281 32.636719 26.167969 32.277344 C 25.96875 31.917969 25.722656 31.597656 25.425781 31.320312 C 25.066406 30.984375 24.65625 30.730469 24.195312 30.558594 C 23.734375 30.386719 23.257812 30.3125 22.765625 30.335938 C 22.273438 30.355469 21.808594 30.472656 21.363281 30.683594 C 20.917969 30.894531 20.53125 31.183594 20.203125 31.550781 L 15.574219 36.195312 L 24.695312 45.347656 L 27.042969 43.050781 L 19.660156 35.632812 L 21.152344 34.140625 C 21.304688 33.980469 21.484375 33.859375 21.683594 33.769531 C 21.886719 33.683594 22.097656 33.636719 22.316406 33.636719 C 22.535156 33.632812 22.746094 33.671875 22.953125 33.753906 C 23.15625 33.835938 23.335938 33.957031 23.492188 34.109375 C 23.648438 34.265625 23.765625 34.445312 23.851562 34.648438 C 23.9375 34.847656 23.976562 35.0625 23.976562 35.28125 C 23.976562 35.5 23.933594 35.710938 23.847656 35.914062 C 23.761719 36.117188 23.640625 36.292969 23.484375 36.449219 L 22.113281 37.828125 L 30 40.070312 L 32.484375 37.585938 " fill-opacity="1" fill-rule="nonzero"/><path fill="#1800ad" d="M 8.003906 43.832031 L 17.121094 52.980469 L 23.410156 46.671875 L 21.539062 44.8125 L 17.570312 48.792969 L 15.585938 46.796875 L 18.804688 43.582031 L 16.945312 41.710938 L 13.726562 44.941406 L 12.171875 43.371094 L 16.140625 39.382812 L 14.28125 37.523438 L 8.003906 43.832031 " fill-opacity="1" fill-rule="nonzero"/><path fill="#1800ad" d="M 0.503906 51.351562 L 9.621094 60.511719 L 15.804688 54.296875 L 13.738281 52.210938 L 9.863281 56.105469 L 2.8125 49.035156 L 0.503906 51.351562 " fill-opacity="1" fill-rule="nonzero"/><g clip-path="url(#05aa416882)"><path fill="#1800ad" d="M 96.835938 45.804688 L 93.921875 55.507812 L 93.914062 55.519531 L 100.210938 49.191406 L 102.371094 51.363281 L 93.265625 60.511719 L 90.402344 57.652344 L 92.890625 47.65625 L 92.898438 47.644531 L 86.664062 53.902344 L 84.566406 51.792969 L 93.683594 42.632812 L 96.835938 45.804688 " fill-opacity="1" fill-rule="nonzero"/></g><path fill="#1800ad" d="M 82.558594 49.785156 L 91.675781 40.625 L 89.253906 38.191406 L 80.125 47.34375 L 82.558594 49.785156 " fill-opacity="1" fill-rule="nonzero"/><path fill="#1800ad" d="M 72.269531 39.464844 L 78.453125 45.679688 L 80.53125 43.59375 L 76.65625 39.707031 L 83.699219 32.636719 L 81.390625 30.316406 L 72.269531 39.464844 " fill-opacity="1" fill-rule="nonzero"/><path fill="#1800ad" d="M 70.546875 37.734375 L 72.300781 31.464844 C 72.667969 31.640625 73.054688 31.753906 73.457031 31.808594 C 73.859375 31.863281 74.261719 31.851562 74.660156 31.777344 C 75.0625 31.703125 75.441406 31.570312 75.796875 31.375 C 76.152344 31.179688 76.472656 30.9375 76.75 30.640625 C 77.085938 30.28125 77.335938 29.867188 77.503906 29.40625 C 77.671875 28.945312 77.746094 28.46875 77.722656 27.980469 C 77.699219 27.488281 77.582031 27.019531 77.375 26.578125 C 77.164062 26.132812 76.875 25.746094 76.511719 25.417969 L 71.59375 20.488281 L 62.472656 29.636719 L 64.792969 31.96875 L 72.175781 24.550781 L 73.972656 26.335938 C 74.128906 26.492188 74.246094 26.667969 74.332031 26.871094 C 74.414062 27.070312 74.457031 27.28125 74.457031 27.5 C 74.457031 27.714844 74.417969 27.925781 74.332031 28.128906 C 74.25 28.328125 74.132812 28.507812 73.980469 28.660156 C 73.824219 28.816406 73.648438 28.933594 73.445312 29.019531 C 73.246094 29.101562 73.035156 29.144531 72.816406 29.144531 C 72.601562 29.144531 72.390625 29.105469 72.1875 29.019531 C 71.988281 28.9375 71.808594 28.820312 71.65625 28.667969 L 70.003906 27.015625 L 68.0625 35.226562 L 70.546875 37.710938 " fill-opacity="1" fill-rule="nonzero"/><path fill="#1800ad" d="M 63.464844 16.050781 L 61.910156 17.605469 L 65.410156 21.113281 L 63.550781 22.984375 L 60.050781 19.476562 L 58.066406 21.460938 L 62.316406 25.742188 L 60.457031 27.601562 L 53.886719 21.011719 L 63.007812 11.851562 L 69.585938 18.453125 L 67.726562 20.320312 L 63.464844 16.050781 " fill-opacity="1" fill-rule="nonzero"/><g clip-path="url(#af5890afcc)"><path fill="#1800ad" d="M 47.652344 14.753906 L 54.746094 11.347656 L 49.511719 16.613281 L 51.609375 18.722656 L 60.730469 9.574219 L 57.835938 6.660156 L 50.972656 10.023438 L 54.410156 3.222656 L 51.421875 0.226562 L 42.304688 9.386719 L 44.414062 11.496094 L 49.648438 6.230469 L 46.261719 13.355469 L 47.652344 14.753906 " fill-opacity="1" fill-rule="nonzero"/></g><g clip-path="url(#7a0563dd45)"><path fill="#1800ad" d="M 11.355469 62.257812 L 91.542969 62.257812 L 51.453125 22.011719 L 11.355469 62.257812 " fill-opacity="1" fill-rule="nonzero"/></g></svg>