<svg xmlns="http://www.w3.org/2000/svg" xmlns:xlink="http://www.w3.org/1999/xlink" width="99" zoomAndPan="magnify" viewBox="0 0 74.25 72.749998" height="97" preserveAspectRatio="xMidYMid meet" version="1.0"><defs><clipPath id="be6b5d0187"><path d="M 0 0.238281 L 72.765625 0.238281 L 72.765625 71.519531 L 0 71.519531 Z M 0 0.238281 " clip-rule="nonzero"/></clipPath></defs><g clip-path="url(#be6b5d0187)"><path fill="#1800ad" d="M 51.570312 24.140625 C 50.492188 24.140625 49.957031 24.140625 49.957031 24.679688 C 49.957031 24.679688 49.957031 25.21875 49.417969 25.21875 L 44.164062 44.070312 C 43.089844 50.800781 34.738281 57.128906 24.371094 57.128906 L 9.828125 57.128906 L 12.386719 47.167969 L 21.8125 47.167969 C 22.890625 47.167969 23.429688 46.628906 24.371094 46.089844 C 24.371094 45.550781 24.910156 45.550781 24.910156 45.011719 L 29.085938 28.316406 C 30.160156 21.582031 37.433594 14.175781 47.9375 14.175781 L 63.015625 14.175781 L 60.863281 23.0625 L 51.4375 23.0625 L 51.4375 24.140625 Z M 55.207031 35.585938 L 56.824219 29.257812 L 71.902344 29.257812 C 74.058594 20.371094 72.441406 12.023438 66.652344 6.769531 C 55.746094 -4.136719 33.394531 -0.5 16.15625 15.792969 C 13.601562 18.351562 11.445312 21.042969 9.425781 23.601562 L 18.851562 23.601562 L 16.695312 29.929688 L 5.65625 29.929688 C 4.578125 32.085938 3.5 33.566406 3.097656 35.722656 L 16.15625 35.722656 L 14.003906 42.050781 L 0.941406 42.050781 C -1.210938 51.476562 -0.132812 60.363281 5.65625 65.480469 C 16.5625 76.386719 39.046875 72.210938 55.746094 56.054688 C 58.84375 53.496094 60.996094 50.261719 63.554688 47.167969 L 51.570312 47.167969 L 53.1875 40.835938 L 67.324219 40.835938 C 68.402344 38.683594 69.480469 37.203125 69.882812 35.046875 L 55.207031 35.046875 Z M 55.207031 35.585938 " fill-opacity="1" fill-rule="evenodd"/></g></svg>