<svg xmlns="http://www.w3.org/2000/svg" xmlns:xlink="http://www.w3.org/1999/xlink" width="31" zoomAndPan="magnify" viewBox="0 0 23.25 22.5" height="30" preserveAspectRatio="xMidYMid meet" version="1.0"><defs><clipPath id="c85ed97574"><path d="M 8.773438 0.109375 L 13.039062 0.109375 L 13.039062 21.882812 L 8.773438 21.882812 Z M 8.773438 0.109375 " clip-rule="nonzero"/></clipPath><clipPath id="b98c188a56"><path d="M 0.773438 0.109375 L 5.039062 0.109375 L 5.039062 21.882812 L 0.773438 21.882812 Z M 0.773438 0.109375 " clip-rule="nonzero"/></clipPath><clipPath id="f0993a7701"><rect x="0" width="6" y="0" height="22"/></clipPath><clipPath id="83304ef33f"><path d="M 0 8.867188 L 21.808594 8.867188 L 21.808594 13.128906 L 0 13.128906 Z M 0 8.867188 " clip-rule="nonzero"/></clipPath><clipPath id="ab8d347be3"><path d="M 0 0.867188 L 21.808594 0.867188 L 21.808594 5.128906 L 0 5.128906 Z M 0 0.867188 " clip-rule="nonzero"/></clipPath><clipPath id="d21a41f084"><rect x="0" width="22" y="0" height="6"/></clipPath></defs><g clip-path="url(#c85ed97574)"><g transform="matrix(1, 0, 0, 1, 8, -0.000000000000003178)"><g clip-path="url(#f0993a7701)"><g clip-path="url(#b98c188a56)"><path fill="#1714a8" d="M 0.773438 21.882812 L 0.773438 0.0976562 L 5.039062 0.0976562 L 5.039062 21.882812 Z M 0.773438 21.882812 " fill-opacity="1" fill-rule="nonzero"/></g></g></g></g><g clip-path="url(#83304ef33f)"><g transform="matrix(1, 0, 0, 1, 0, 8)"><g clip-path="url(#d21a41f084)"><g clip-path="url(#ab8d347be3)"><path fill="#1714a8" d="M 21.808594 5.128906 L 0.00390625 5.128906 L 0.00390625 0.867188 L 21.808594 0.867188 Z M 21.808594 5.128906 " fill-opacity="1" fill-rule="nonzero"/></g></g></g></g></svg>